#Comment line ignore any data following # character 
#Hierarchical Translation and Rotation (.htr) file 
[Header]	
#Header keywords are followed by a single value 
FileType HTR		#Single word string
DataType HTRS		#Translation followed by rotation and scale data
FileVersion 1		#integer
NumSegments 84		#integer
NumFrames 2		#integer
DataFrameRate 30		#integer, data frame rate in this file
EulerRotationOrder ZYX
CalibrationUnits mm
RotationUnits Degrees
GlobalAxisofGravity Y
BoneLengthAxis Y
ScaleFactor 1.00
[SegmentNames&Hierarchy]
#CHILD	PARENT
MASTER GLOBAL
root MASTER
chest root
L_mid_tent01 root
R_mid_tent01 root
spine01 root
Bip01_Neck chest
L_humerus chest
R_humerus chest
weapon_bone chest
Bip01_Head Bip01_Neck
eye_left_bone Bip01_Head
eye_right_bone Bip01_Head
L_forearm L_humerus
L_front_hand L_forearm
L_weapon_bone L_forearm
L_front_hand01_01 L_front_hand
L_front_hand02_01 L_front_hand
L_front_hand03_01 L_front_hand
L_front_hand01_02 L_front_hand01_01
L_front_hand02_02 L_front_hand02_01
L_front_hand03_02 L_front_hand03_01
R_forearm R_humerus
R_front_hand R_forearm
R_weapon_bone R_forearm
R_front_hand01_01 R_front_hand
R_front_hand02_01 R_front_hand
R_front_hand03_01 R_front_hand
R_front_hand01_02 R_front_hand01_01
R_front_hand02_02 R_front_hand02_01
R_front_hand03_02 R_front_hand03_01
null_rope01_connect L_mid_tent01
Rope1_Seg01 null_rope01_connect
Rope1_Seg02 Rope1_Seg01
Rope1_Seg03 Rope1_Seg02
Rope1_Seg04 Rope1_Seg03
Rope1_Seg05 Rope1_Seg04
Rope1_Seg06 Rope1_Seg05
Rope1_Seg07 Rope1_Seg06
Rope1_Seg09 Rope1_Seg07
L_mid_hand01 Rope1_Seg09
L_mid_hand02 Rope1_Seg09
L_mid_hand03 Rope1_Seg09
null_rope02_connect R_mid_tent01
Rope2_Seg01 null_rope02_connect
Rope2_Seg02 Rope2_Seg01
Rope2_Seg03 Rope2_Seg02
Rope2_Seg04 Rope2_Seg03
Rope2_Seg05 Rope2_Seg04
Rope2_Seg06 Rope2_Seg05
Rope2_Seg07 Rope2_Seg06
Rope2_Seg09 Rope2_Seg07
R_mid_hand01 Rope2_Seg09
R_mid_hand02 Rope2_Seg09
R_mid_hand03 Rope2_Seg09
spine02 spine01
spine03 spine02
pelvis spine03
null_rope03_connect pelvis
null_rope04_connect pelvis
Rope3_Seg01 null_rope03_connect
Rope3_Seg02 Rope3_Seg01
Rope3_Seg03 Rope3_Seg02
Rope3_Seg04 Rope3_Seg03
Rope3_Seg05 Rope3_Seg04
Rope3_Seg06 Rope3_Seg05
Rope3_Seg07 Rope3_Seg06
Rope3_Seg08 Rope3_Seg07
Rope3_Seg09 Rope3_Seg08
R_rear_hand01 Rope3_Seg09
R_rear_hand02 Rope3_Seg09
R_rear_hand03 Rope3_Seg09
Rope4_Seg01 null_rope04_connect
Rope4_Seg02 Rope4_Seg01
Rope4_Seg03 Rope4_Seg02
Rope4_Seg04 Rope4_Seg03
Rope4_Seg05 Rope4_Seg04
Rope4_Seg06 Rope4_Seg05
Rope4_Seg07 Rope4_Seg06
Rope4_Seg08 Rope4_Seg07
Rope4_Seg09 Rope4_Seg08
L_rear_hand01 Rope4_Seg09
L_rear_hand02 Rope4_Seg09
L_rear_hand03 Rope4_Seg09
[BasePosition]
#SegmentName Tx, Ty, Tz, Rx, Ry, Rz, BoneLength
MASTER 0.000000 0.000000 0.000000 -90.000000 0.000000 0.000000 10.000000 
root 0.000000 0.000000 0.000000 0.000000 0.000000 0.000000 10.000000 
chest 0.000000 0.000000 0.000000 0.000000 0.000000 0.000000 10.000000 
L_mid_tent01 0.000000 0.000000 0.000000 0.000000 0.000000 0.000000 10.000000 
R_mid_tent01 0.000000 0.000000 0.000000 0.000000 0.000000 0.000000 10.000000 
spine01 0.000000 0.000000 0.000000 0.000000 0.000000 0.000000 10.000000 
Bip01_Neck 0.000000 0.000000 0.000000 0.000000 0.000000 0.000000 10.000000 
L_humerus 0.000000 0.000000 0.000000 0.000000 0.000000 0.000000 10.000000 
R_humerus 0.000000 0.000000 0.000000 0.000000 0.000000 0.000000 10.000000 
weapon_bone 0.000000 0.000000 0.000000 0.000000 0.000000 0.000000 10.000000 
Bip01_Head 0.000000 0.000000 0.000000 0.000000 0.000000 0.000000 10.000000 
eye_left_bone 0.000000 0.000000 0.000000 0.000000 0.000000 0.000000 10.000000 
eye_right_bone 0.000000 0.000000 0.000000 0.000000 0.000000 0.000000 10.000000 
L_forearm 0.000000 0.000000 0.000000 0.000000 0.000000 0.000000 10.000000 
L_front_hand 0.000000 0.000000 0.000000 0.000000 0.000000 0.000000 10.000000 
L_weapon_bone 0.000000 0.000000 0.000000 0.000000 0.000000 0.000000 10.000000 
L_front_hand01_01 0.000000 0.000000 0.000000 0.000000 0.000000 0.000000 10.000000 
L_front_hand02_01 0.000000 0.000000 0.000000 0.000000 0.000000 0.000000 10.000000 
L_front_hand03_01 0.000000 0.000000 0.000000 0.000000 0.000000 0.000000 10.000000 
L_front_hand01_02 0.000000 0.000000 0.000000 0.000000 0.000000 0.000000 10.000000 
L_front_hand02_02 0.000000 0.000000 0.000000 0.000000 0.000000 0.000000 10.000000 
L_front_hand03_02 0.000000 0.000000 0.000000 0.000000 0.000000 0.000000 10.000000 
R_forearm 0.000000 0.000000 0.000000 0.000000 0.000000 0.000000 10.000000 
R_front_hand 0.000000 0.000000 0.000000 0.000000 0.000000 0.000000 10.000000 
R_weapon_bone 0.000000 0.000000 0.000000 0.000000 0.000000 0.000000 10.000000 
R_front_hand01_01 0.000000 0.000000 0.000000 0.000000 0.000000 0.000000 10.000000 
R_front_hand02_01 0.000000 0.000000 0.000000 0.000000 0.000000 0.000000 10.000000 
R_front_hand03_01 0.000000 0.000000 0.000000 0.000000 0.000000 0.000000 10.000000 
R_front_hand01_02 0.000000 0.000000 0.000000 0.000000 0.000000 0.000000 10.000000 
R_front_hand02_02 0.000000 0.000000 0.000000 0.000000 0.000000 0.000000 10.000000 
R_front_hand03_02 0.000000 0.000000 0.000000 0.000000 0.000000 0.000000 10.000000 
null_rope01_connect 0.000000 0.000000 0.000000 0.000000 0.000000 0.000000 10.000000 
Rope1_Seg01 0.000000 0.000000 0.000000 0.000000 0.000000 0.000000 10.000000 
Rope1_Seg02 0.000000 0.000000 0.000000 0.000000 0.000000 0.000000 10.000000 
Rope1_Seg03 0.000000 0.000000 0.000000 0.000000 0.000000 0.000000 10.000000 
Rope1_Seg04 0.000000 0.000000 0.000000 0.000000 0.000000 0.000000 10.000000 
Rope1_Seg05 0.000000 0.000000 0.000000 0.000000 0.000000 0.000000 10.000000 
Rope1_Seg06 0.000000 0.000000 0.000000 0.000000 0.000000 0.000000 10.000000 
Rope1_Seg07 0.000000 0.000000 0.000000 0.000000 0.000000 0.000000 10.000000 
Rope1_Seg09 0.000000 0.000000 0.000000 0.000000 0.000000 0.000000 10.000000 
L_mid_hand01 0.000000 0.000000 0.000000 0.000000 0.000000 0.000000 10.000000 
L_mid_hand02 0.000000 0.000000 0.000000 0.000000 0.000000 0.000000 10.000000 
L_mid_hand03 0.000000 0.000000 0.000000 0.000000 0.000000 0.000000 10.000000 
null_rope02_connect 0.000000 0.000000 0.000000 0.000000 0.000000 0.000000 10.000000 
Rope2_Seg01 0.000000 0.000000 0.000000 0.000000 0.000000 0.000000 10.000000 
Rope2_Seg02 0.000000 0.000000 0.000000 0.000000 0.000000 0.000000 10.000000 
Rope2_Seg03 0.000000 0.000000 0.000000 0.000000 0.000000 0.000000 10.000000 
Rope2_Seg04 0.000000 0.000000 0.000000 0.000000 0.000000 0.000000 10.000000 
Rope2_Seg05 0.000000 0.000000 0.000000 0.000000 0.000000 0.000000 10.000000 
Rope2_Seg06 0.000000 0.000000 0.000000 0.000000 0.000000 0.000000 10.000000 
Rope2_Seg07 0.000000 0.000000 0.000000 0.000000 0.000000 0.000000 10.000000 
Rope2_Seg09 0.000000 0.000000 0.000000 0.000000 0.000000 0.000000 10.000000 
R_mid_hand01 0.000000 0.000000 0.000000 0.000000 0.000000 0.000000 10.000000 
R_mid_hand02 0.000000 0.000000 0.000000 0.000000 0.000000 0.000000 10.000000 
R_mid_hand03 0.000000 0.000000 0.000000 0.000000 0.000000 0.000000 10.000000 
spine02 0.000000 0.000000 0.000000 0.000000 0.000000 0.000000 10.000000 
spine03 0.000000 0.000000 0.000000 0.000000 0.000000 0.000000 10.000000 
pelvis 0.000000 0.000000 0.000000 0.000000 0.000000 0.000000 10.000000 
null_rope03_connect 0.000000 0.000000 0.000000 0.000000 0.000000 0.000000 10.000000 
null_rope04_connect 0.000000 0.000000 0.000000 0.000000 0.000000 0.000000 10.000000 
Rope3_Seg01 0.000000 0.000000 0.000000 0.000000 0.000000 0.000000 10.000000 
Rope3_Seg02 0.000000 0.000000 0.000000 0.000000 0.000000 0.000000 10.000000 
Rope3_Seg03 0.000000 0.000000 0.000000 0.000000 0.000000 0.000000 10.000000 
Rope3_Seg04 0.000000 0.000000 0.000000 0.000000 0.000000 0.000000 10.000000 
Rope3_Seg05 0.000000 0.000000 0.000000 0.000000 0.000000 0.000000 10.000000 
Rope3_Seg06 0.000000 0.000000 0.000000 0.000000 0.000000 0.000000 10.000000 
Rope3_Seg07 0.000000 0.000000 0.000000 0.000000 0.000000 0.000000 10.000000 
Rope3_Seg08 0.000000 0.000000 0.000000 0.000000 0.000000 0.000000 10.000000 
Rope3_Seg09 0.000000 0.000000 0.000000 0.000000 0.000000 0.000000 10.000000 
R_rear_hand01 0.000000 0.000000 0.000000 0.000000 0.000000 0.000000 10.000000 
R_rear_hand02 0.000000 0.000000 0.000000 0.000000 0.000000 0.000000 10.000000 
R_rear_hand03 0.000000 0.000000 0.000000 0.000000 0.000000 0.000000 10.000000 
Rope4_Seg01 0.000000 0.000000 0.000000 0.000000 0.000000 0.000000 10.000000 
Rope4_Seg02 0.000000 0.000000 0.000000 0.000000 0.000000 0.000000 10.000000 
Rope4_Seg03 0.000000 0.000000 0.000000 0.000000 0.000000 0.000000 10.000000 
Rope4_Seg04 0.000000 0.000000 0.000000 0.000000 0.000000 0.000000 10.000000 
Rope4_Seg05 0.000000 0.000000 0.000000 0.000000 0.000000 0.000000 10.000000 
Rope4_Seg06 0.000000 0.000000 0.000000 0.000000 0.000000 0.000000 10.000000 
Rope4_Seg07 0.000000 0.000000 0.000000 0.000000 0.000000 0.000000 10.000000 
Rope4_Seg08 0.000000 0.000000 0.000000 0.000000 0.000000 0.000000 10.000000 
Rope4_Seg09 0.000000 0.000000 0.000000 0.000000 0.000000 0.000000 10.000000 
L_rear_hand01 0.000000 0.000000 0.000000 0.000000 0.000000 0.000000 10.000000 
L_rear_hand02 0.000000 0.000000 0.000000 0.000000 0.000000 0.000000 10.000000 
L_rear_hand03 0.000000 0.000000 0.000000 0.000000 0.000000 0.000000 10.000000 
#Beginning of Data. Separated by tabs
#Fr	Tx	Ty	Tz	Rx	Ry	Rz	SF
[MASTER]
7 1303.552124 1405.236450 -686.966980 0.001660 0.001660 0.001660 2036.138916
8 1449.390015 1587.935303 -803.938538 0.001660 0.001660 0.001660 2295.340332
[root]
7 75.159935 -197.733582 670.280396 -166.412842 -4.338942 -81.859474 702.867981
8 41.689301 -152.601776 779.530701 -156.877304 -7.221825 -83.442482 795.420288
[chest]
7 -84.512650 -34.090519 0.000000 -63.828247 -25.424601 -167.527313 91.129311
8 -84.512650 -34.090519 0.000000 -57.563435 -23.116602 -171.211945 91.129311
[L_mid_tent01]
7 27.298992 22.179232 -249.918823 -3.861027 11.588641 60.436798 252.381790
8 27.298985 22.179222 -249.918823 -4.855075 21.280954 56.357273 252.381790
[R_mid_tent01]
7 23.228794 24.509907 226.238495 160.763443 39.105263 58.704529 228.744751
8 23.228794 24.509907 226.238495 162.177353 33.485947 59.021809 228.744751
[spine01]
7 -0.361383 -0.195265 0.000000 -0.000001 -0.000007 22.052340 0.410763
8 -0.361383 -0.195265 0.000000 -0.000001 -0.000007 22.052340 0.410763
[Bip01_Neck]
7 165.484543 71.581718 0.000119 176.643677 -1.657967 43.431911 180.302734
8 165.484543 71.581718 0.000119 176.643677 -1.657967 43.431911 180.302734
[L_humerus]
7 -13.983130 -135.272980 -120.471481 155.678757 67.723335 -112.417892 181.680161
8 -13.983130 -135.272980 -120.471481 156.202194 67.260712 -111.886528 181.680161
[R_humerus]
7 -13.983309 -135.273102 125.287651 -124.044472 -69.421669 -138.769180 184.909012
8 -13.983309 -135.273102 125.287651 -132.539230 -68.992027 -130.582474 184.909012
[weapon_bone]
7 235.964890 -300.705902 0.000000 0.000000 -89.951546 -128.212341 382.234833
8 235.964890 -300.705902 0.000000 0.000000 -89.951546 -128.212341 382.234833
[Bip01_Head]
7 213.365936 185.933746 8.960636 12.641887 6.150503 -43.834812 283.154846
8 213.378448 185.898926 9.409842 14.124685 6.148454 -43.830711 283.155975
[eye_left_bone]
7 -24.626970 125.451866 -64.772606 0.000000 -90.000000 -99.840431 143.318359
8 -24.626970 125.451866 -64.772606 0.000000 -90.000000 -99.840431 143.318359
[eye_right_bone]
7 -24.626970 125.451866 64.327362 0.000000 -90.000000 80.156395 143.117676
8 -24.626970 125.451866 64.327362 0.000000 -89.980217 80.156387 143.117676
[L_forearm]
7 322.776093 0.000000 -0.000119 0.000310 -0.002327 -105.190056 322.776093
8 322.776093 0.000000 -0.000119 0.000318 -0.002326 -105.549774 322.776093
[L_front_hand]
7 241.149185 -0.042021 -3.300071 -105.490540 -1.835781 -27.423635 241.171753
8 241.149185 -0.042021 -3.300071 -105.490540 -1.835781 -27.423635 241.171753
[L_weapon_bone]
7 156.183838 0.000000 0.000000 0.000014 0.000007 0.000001 156.183838
8 156.183838 0.000000 0.000000 0.000014 0.000007 0.000001 156.183838
[L_front_hand01_01]
7 86.095154 20.947098 -0.655860 -0.366594 -0.477154 75.385574 88.609184
8 86.095154 20.947098 -0.655860 -0.366594 -0.477154 75.385574 88.609184
[L_front_hand02_01]
7 86.935165 -11.437475 24.513514 154.399811 -59.883842 -61.369587 91.046425
8 86.935165 -11.437475 24.513514 154.399796 -59.883835 -61.369587 91.046425
[L_front_hand03_01]
7 86.637497 -14.123976 -20.424902 -153.913849 58.118122 -62.702850 90.126129
8 86.637497 -14.123976 -20.424902 -153.913879 58.118130 -62.702892 90.126129
[L_front_hand01_02]
7 71.020905 -0.000179 0.000030 0.000334 -0.002323 -106.379684 71.020905
8 71.020905 -0.000179 0.000030 0.000334 -0.002323 -106.379684 71.020905
[L_front_hand02_02]
7 71.020927 -0.000119 0.000060 0.000334 -0.002323 -106.379684 71.020927
8 71.020927 -0.000119 0.000060 0.000334 -0.002323 -106.379684 71.020927
[L_front_hand03_02]
7 71.020905 -0.000060 0.000060 0.000334 -0.002323 -106.379684 71.020905
8 71.020905 -0.000060 0.000060 0.000334 -0.002323 -106.379684 71.020905
[R_forearm]
7 322.776428 -0.000060 0.000030 0.208367 0.046634 -103.800987 322.776428
8 322.776428 -0.000060 0.000030 0.208593 0.047780 -104.164177 322.776428
[R_front_hand]
7 238.847015 -0.006795 2.210259 -2.635298 -10.645461 -26.312506 238.857239
8 238.847015 -0.006795 2.210259 -2.635298 -10.645461 -26.312506 238.857239
[R_weapon_bone]
7 155.664093 0.002503 -0.000030 0.003487 0.001180 -90.988930 155.664078
8 155.664093 0.002503 -0.000030 0.003487 0.001180 -90.988930 155.664078
[R_front_hand01_01]
7 87.624611 14.231146 22.918642 -154.633514 -59.950626 61.746063 91.683487
8 87.624611 14.231146 22.918642 -154.633514 -59.950634 61.746063 91.683487
[R_front_hand02_01]
7 89.356956 14.367283 -19.491137 154.602676 58.302864 63.744389 92.579636
8 89.356956 14.367283 -19.491137 154.602661 58.302849 63.744389 92.579636
[R_front_hand03_01]
7 87.286232 -22.307278 -0.143439 0.162155 -0.423168 -75.767921 90.091743
8 87.286232 -22.307278 -0.143439 0.162155 -0.423168 -75.767921 90.091743
[R_front_hand01_02]
7 71.020905 0.000060 0.000119 0.002323 -0.000334 106.381721 71.020905
8 71.020905 0.000060 0.000119 0.002323 -0.000334 106.381714 71.020905
[R_front_hand02_02]
7 71.020844 -0.000030 -0.000119 0.002323 -0.000334 106.381721 71.020836
8 71.020844 -0.000030 -0.000119 0.002323 -0.000334 106.381714 71.020836
[R_front_hand03_02]
7 71.020905 0.000000 0.000030 0.002323 -0.000334 106.381721 71.020905
8 71.020905 0.000000 0.000030 0.002323 -0.000334 106.381714 71.020905
[null_rope01_connect]
7 328.732483 0.000000 -0.000238 -173.642212 -2.521737 -143.041840 328.732483
8 328.732483 0.000000 -0.000238 -165.680405 -4.200386 -142.596344 328.732483
[Rope1_Seg01]
7 -0.000025 -0.000122 0.000000 -22.111742 -16.806929 -152.580963 0.000125
8 -0.000026 -0.000137 0.000000 -29.575157 -21.754734 -159.987320 0.000139
[Rope1_Seg02]
7 139.999863 -0.000179 0.000000 43.604290 17.178524 21.377344 139.999863
8 139.999863 -0.000179 0.000000 55.650219 15.553759 34.167286 139.999863
[Rope1_Seg03]
7 139.999924 0.000060 -0.000060 1.684833 0.586815 1.246893 139.999924
8 139.999924 0.000060 -0.000060 7.116251 4.160787 3.935371 139.999924
[Rope1_Seg04]
7 139.999924 -0.000060 -0.000119 -48.371601 -30.211845 -0.605687 139.999924
8 139.999924 -0.000060 -0.000119 -33.460423 -23.908060 4.808377 139.999924
[Rope1_Seg05]
7 139.999832 0.000119 -0.000060 -15.440909 -5.774650 -6.780976 139.999832
8 139.999832 0.000119 -0.000060 -15.074800 -6.357055 -2.404389 139.999832
[Rope1_Seg06]
7 139.999954 0.000119 -0.000060 -5.746348 -1.623823 -3.463319 139.999954
8 139.999954 0.000119 -0.000060 -7.675021 -2.650172 -1.838600 139.999954
[Rope1_Seg07]
7 139.999985 0.000060 0.000000 -3.223619 -0.783667 -2.232608 139.999985
8 139.999985 0.000060 0.000000 -4.858933 -1.502482 -1.380190 139.999985
[Rope1_Seg09]
7 121.602913 0.000119 -0.000089 -89.793175 -1.359789 0.847147 121.602913
8 121.602913 0.000119 -0.000089 -89.793175 -1.359789 0.847147 121.602913
[L_mid_hand01]
7 103.859421 1.038730 8.195221 130.544373 -67.584534 -38.866943 104.187431
8 103.859421 1.038730 8.195221 130.544373 -67.584534 -38.866947 104.187431
[L_mid_hand02]
7 105.572853 -4.139662 -10.864139 -168.923172 43.409321 -73.498909 106.211075
8 105.572853 -4.139662 -10.864139 -168.923172 43.409309 -73.498894 106.211075
[L_mid_hand03]
7 104.641464 17.579376 -3.913581 -6.012627 17.808174 74.893669 106.179977
8 104.641464 17.579376 -3.913581 -6.012627 17.808178 74.893677 106.179977
[null_rope02_connect]
7 328.732849 0.000179 -0.000119 10.581223 -28.076088 146.143600 328.732849
8 328.732849 0.000179 -0.000119 9.292622 -13.345324 147.779327 328.732849
[Rope2_Seg01]
7 0.000000 0.000034 -0.000052 -43.163086 -14.033700 -148.976715 0.000062
8 0.000000 0.000008 -0.000048 -44.425930 30.229107 -122.300346 0.000049
[Rope2_Seg02]
7 139.999741 -0.000060 -0.000119 -0.409975 -12.534552 4.426069 139.999756
8 139.999741 -0.000060 -0.000119 1.699740 -18.816301 -20.270357 139.999756
[Rope2_Seg03]
7 140.000107 0.000030 0.000000 -0.691243 -12.331864 3.464449 140.000107
8 140.000107 0.000030 0.000000 -2.258501 -14.925406 -13.359396 140.000107
[Rope2_Seg04]
7 139.999802 0.000000 -0.000060 -0.104912 -4.013974 1.628543 139.999802
8 139.999802 0.000000 -0.000060 -1.858584 -3.891322 -5.767859 139.999802
[Rope2_Seg05]
7 139.999985 -0.000060 0.000119 0.768622 8.003120 -0.375905 139.999985
8 139.999985 -0.000060 0.000119 0.322648 5.163772 -0.676897 139.999985
[Rope2_Seg06]
7 139.999893 -0.000030 -0.000119 0.295364 7.660157 -0.647723 139.999893
8 139.999893 -0.000030 -0.000119 0.564236 7.655447 0.629277 139.999893
[Rope2_Seg07]
7 139.999893 0.000060 -0.000060 0.017253 3.286069 -0.146280 139.999893
8 139.999893 0.000060 -0.000060 -0.018184 3.434433 -0.661906 139.999893
[Rope2_Seg09]
7 121.338966 0.000089 -0.000060 33.793236 -1.359788 -0.847141 121.338966
8 121.338966 0.000089 -0.000060 33.793236 -1.359788 -0.847141 121.338966
[R_mid_hand01]
7 104.680779 11.144459 -10.335981 -16.212065 45.237247 70.462852 105.778534
8 104.680779 11.144459 -10.335981 -16.212063 45.237240 70.462845 105.778534
[R_mid_hand02]
7 104.070427 2.443552 8.231699 49.067387 -67.749794 39.286469 104.424065
8 104.070427 2.443552 8.231699 49.067387 -67.749794 39.286469 104.424065
[R_mid_hand03]
7 106.028137 -11.221827 -5.996406 -177.101105 15.551026 -76.585571 106.788818
8 106.028137 -11.221827 -5.996406 -177.101105 15.551026 -76.585571 106.788818
[spine02]
7 129.756927 0.001550 0.000119 -0.072769 -4.060011 -6.804067 129.756927
8 129.756927 0.001550 0.000119 -0.035822 -4.060284 -7.326271 129.756927
[spine03]
7 78.614105 0.081187 -4.899061 1.636377 3.949200 12.664794 78.766647
8 78.614113 0.081223 -4.899067 1.658766 3.939471 12.988880 78.766655
[pelvis]
7 169.435242 0.051022 0.000000 -0.037225 -0.189464 6.390557 169.435257
8 169.435242 0.051022 0.000000 -0.039720 -0.189141 7.048835 169.435257
[null_rope03_connect]
7 -1.257226 -2.466202 137.391083 -177.617691 -14.748049 -116.199097 137.418976
8 -1.257226 -2.466202 137.391083 -175.539261 -24.509504 -117.899437 137.418976
[null_rope04_connect]
7 -1.259640 -2.480268 -137.844437 -177.617691 -14.748049 -116.199097 137.872513
8 -1.259640 -2.480268 -137.844437 -175.539261 -24.509504 -117.899437 137.872513
[Rope3_Seg01]
7 0.000000 0.000000 0.000000 28.595566 -28.400686 -100.085075 0.000000
8 0.000000 0.000000 0.000000 22.661554 -27.938156 -86.658051 0.000000
[Rope3_Seg02]
7 139.999924 -0.000119 0.000060 -13.820886 14.832699 -16.023109 139.999924
8 139.999924 -0.000119 0.000060 -6.946659 15.238879 -12.018270 139.999924
[Rope3_Seg03]
7 139.999924 -0.000119 0.000119 -10.953432 26.050985 -4.349524 139.999924
8 139.999924 -0.000119 0.000119 -3.002754 25.105783 0.138846 139.999924
[Rope3_Seg04]
7 139.999924 0.000119 0.000000 1.099007 -10.222110 -17.523645 139.999924
8 139.999924 0.000119 0.000000 2.268044 -12.747849 -18.854244 139.999924
[Rope3_Seg05]
7 139.999924 -0.000238 0.000060 13.856853 -19.286440 -18.769518 139.999924
8 139.999924 -0.000238 0.000060 20.083595 -27.555449 -27.418207 139.999924
[Rope3_Seg06]
7 139.999893 -0.000119 -0.000060 7.077872 -6.092035 -4.723310 139.999893
8 139.999893 -0.000119 -0.000060 11.673368 -8.873593 -5.595591 139.999893
[Rope3_Seg07]
7 139.999771 0.000060 -0.000119 6.569362 -3.756275 -2.305740 139.999771
8 139.999771 0.000060 -0.000119 10.470309 -5.024681 -1.975256 139.999771
[Rope3_Seg08]
7 139.999985 -0.000060 0.000000 5.417103 -2.290033 -1.067427 139.999985
8 139.999985 -0.000060 0.000000 8.136248 -2.894015 -0.561312 139.999985
[Rope3_Seg09]
7 90.185997 -0.000179 -0.000060 89.793228 -1.359877 -0.847183 90.185997
8 90.185997 -0.000179 -0.000060 89.793228 -1.359877 -0.847183 90.185997
[R_rear_hand01]
7 103.366196 -6.073594 -10.757982 172.856537 -15.220671 -75.434441 104.101845
8 103.366196 -6.073594 -10.757982 172.856537 -15.220674 -75.434448 104.101845
[R_rear_hand02]
7 100.509819 12.039542 -7.992327 -12.874829 36.868488 72.167213 101.543350
8 100.509819 12.039542 -7.992327 -12.874834 36.868492 72.167213 101.543350
[R_rear_hand03]
7 101.539970 5.215704 5.435467 71.484627 -71.816643 21.513817 101.819031
8 101.539970 5.215704 5.435467 71.484627 -71.816643 21.513817 101.819031
[Rope4_Seg01]
7 -0.000100 -0.000026 -0.000073 -172.522919 -18.813169 -14.004721 0.000127
8 -0.000104 -0.000024 -0.000073 -177.531830 -34.621960 -21.829294 0.000130
[Rope4_Seg02]
7 139.999985 0.000060 0.000119 43.256695 20.727600 44.884682 139.999985
8 139.999985 0.000060 0.000119 33.449078 15.444838 42.785538 139.999985
[Rope4_Seg03]
7 139.999924 0.000000 -0.000238 48.810390 58.879982 78.202057 139.999924
8 139.999924 0.000000 -0.000238 22.515295 41.114418 58.563171 139.999924
[Rope4_Seg04]
7 139.999985 0.000000 0.000119 0.611194 6.748680 2.772762 139.999985
8 139.999985 0.000000 0.000119 0.363644 7.447714 3.351393 139.999985
[Rope4_Seg05]
7 139.999802 -0.000060 -0.000119 4.338241 0.280515 -3.700317 139.999802
8 139.999802 -0.000060 -0.000119 6.749837 -0.348430 -8.960554 139.999802
[Rope4_Seg06]
7 139.999924 0.000000 0.000060 6.592577 -3.016633 -8.122308 139.999924
8 139.999924 0.000000 0.000060 4.540617 -1.420531 -7.405422 139.999924
[Rope4_Seg07]
7 139.999802 0.000000 0.000000 4.270331 -2.835914 -6.458997 139.999802
8 139.999802 0.000000 0.000000 1.847853 -0.030363 -2.922424 139.999802
[Rope4_Seg08]
7 139.999924 0.000000 0.000119 0.347749 -1.097263 -3.073457 139.999924
8 139.999924 0.000000 0.000119 -0.412547 -0.079240 -1.862675 139.999924
[Rope4_Seg09]
7 90.185791 0.000060 0.000060 -135.617828 2.228885 0.850567 90.185791
8 90.185791 0.000060 0.000060 -135.617828 2.228885 0.850567 90.185791
[L_rear_hand01]
7 101.696655 -8.392275 -7.654577 -12.874829 -36.868488 107.832764 102.329041
8 101.696655 -8.392275 -7.654577 -12.874834 -36.868492 107.832779 102.329041
[L_rear_hand02]
7 102.726799 -1.568258 5.773216 71.484627 71.816643 158.486160 102.900848
8 102.726799 -1.568258 5.773216 71.484627 71.816643 158.486160 102.900848
[L_rear_hand03]
7 104.552910 9.721220 -10.420293 -177.714203 -24.565960 -106.089035 105.519653
8 104.552910 9.721220 -10.420293 -177.714203 -24.565960 -106.089035 105.519653
